<svg id="visual" viewBox="0 0 1200 800" width="1200" height="800" xmlns="http://www.w3.org/2000/svg" xmlns:xlink="http://www.w3.org/1999/xlink" version="1.1"><rect x="0" y="0" width="1200" height="800" fill="#FFFFFF"></rect><g transform="translate(1141.0532486924424 82.95574676378521)"><path d="M418.6 -718C548.5 -650 663.9 -550 730.4 -425C796.9 -300 814.5 -150 765.8 -28.1C717 93.8 602.1 187.5 515.3 277.4C428.6 367.3 370 453.4 288.9 527.7C207.7 602 103.8 664.5 5 655.9C-93.8 647.2 -187.7 567.4 -301.7 512C-415.7 456.7 -549.9 425.9 -617.9 344.6C-685.8 263.3 -687.4 131.7 -655.8 18.3C-624.2 -95.2 -559.3 -190.3 -517 -315.9C-474.7 -441.5 -454.8 -597.5 -372.4 -692.9C-290 -788.3 -145 -823.1 -0.3 -822.6C144.3 -822 288.7 -786 418.6 -718" fill="#ffefe1"></path></g></svg>